HIERARCHY
ROOT Hips
{
	OFFSET 0.00000 0.00000 0.00000
	CHANNELS 6 Xposition Yposition Zposition Yrotation Zrotation Xrotation 
	JOINT Lumbar
	{
		OFFSET 0 0 0
		CHANNELS 3 Zrotation Xrotation Yrotation
		JOINT Neck
		{
			OFFSET 0.00 0.2701 0.00
			CHANNELS 3 Zrotation Xrotation Yrotation
			End Site
			{
				OFFSET 0.00 0.1379 0.00
			}
		}
		JOINT RightShoulder
		{
			OFFSET 0.0119 0.2289 0.1181
			CHANNELS 3 Zrotation Xrotation Yrotation
			JOINT RightElbow
			{
				OFFSET 0.00 -0.1475 0.00
				CHANNELS 2 Zrotation Yrotation
				JOINT RightWrist
				{
					OFFSET 0.00 -0.1605 0.00
					CHANNELS 2 Zrotation Xrotation
					End Site
					{
						OFFSET 0.0040 -0.1068 0.0006
					}
				}
			}
		}
		JOINT LeftShoulder
		{
			OFFSET 0.0119 0.2289 -0.1181
			CHANNELS 3 Zrotation Xrotation Yrotation
			JOINT LeftElbow
			{
				OFFSET 0.00 -0.1475 0.00
				CHANNELS 2 Zrotation Yrotation
				JOINT LeftWrist
				{
					OFFSET 0.00 -0.1605 0.00
					CHANNELS 2 Zrotation Xrotation
					End Site
					{
						OFFSET 0.0040 -0.1068 -0.0006
					}
				}
			}
		}
	}
	JOINT RightHip
	{
		OFFSET 0.0316 -0.0424 0.0458
		CHANNELS 3 Zrotation Xrotation Yrotation
		JOINT RightKnee
		{
			OFFSET 0.00 -0.2438 0.00
			CHANNELS 1 Zrotation
			JOINT RightAnkle
			{
				OFFSET 0.00 -0.2449 0.00
				CHANNELS 3 Zrotation Xrotation Yrotation
				End Site
				{
					OFFSET 0.1237 -0.0542 0.0051
				}
			}
		}
	}
	JOINT LeftHip
	{
		OFFSET 0.0316 -0.0424 -0.0458
		CHANNELS 3 Zrotation Xrotation Yrotation
		JOINT LeftKnee
		{
			OFFSET 0.00 -0.2438 0.00
			CHANNELS 1 Zrotation
			JOINT LeftAnkle
			{
				OFFSET 0.00 -0.2449 0.00
				CHANNELS 3 Zrotation Xrotation Yrotation
				End Site
				{
					OFFSET 0.1237 -0.0542 -0.0051
				}
			}
		}
	}
}
MOTION
Frames: 33
Frame Time: 0.02
-0.00103 0.00146 -0.00567 -116.81654 -25.48201 1.10274 39.4979 3.03114 5.50931 -20.21695 5.86073 -1.77977 0.9372 -19.4438 6.54792 37.90359 65.00966 -1.01571 -3.47179 -44.18363 13.00126 -2.17769 33.34099 -85.52311 10.89509 1.49978 29.49124 -1.13456 -13.98043 -20.93709 -7.40534 -3.26301 -3.86013 42.14557 11.10622 0.80991 -32.07241 -9.00131 0.97631 2.81424
0.00065 0.00136 -0.0065 -116.09444 -25.75571 1.02935 39.78844 2.97059 5.05876 -20.0684 5.79016 -1.78055 -0.33455 -18.7359 5.63468 37.01817 70.24976 0.36583 -2.53966 -43.37819 13.07811 -1.36664 33.92668 -89.86573 12.39758 0.81391 29.9927 -1.22071 -14.05988 -21.09297 -7.41886 -3.30363 -3.88087 41.85108 11.5674 1.23672 -32.15517 -9.02827 1.13854 2.89617
0.00232 0.00127 -0.00733 -115.37371 -26.02867 0.9559 40.07821 2.91021 4.60851 -19.92014 5.71925 -1.78132 -1.60422 -18.02994 4.72424 36.13556 75.47371 1.74302 -1.61037 -42.5736 13.15589 -0.56037 34.51141 -94.18418 13.89075 0.13185 30.49281 -1.30667 -14.13921 -21.24842 -7.43242 -3.34419 -3.90158 41.55729 12.0269 1.66264 -32.23756 -9.05553 1.30053 2.97799
0.00399 0.00117 -0.00815 -114.65369 -26.30156 0.8827 40.36789 2.84985 4.15917 -19.77202 5.64882 -1.7821 -2.87235 -17.32416 3.81374 35.25286 80.69794 3.12036 -0.68106 -41.77039 13.23272 0.24777 35.09542 -98.51117 15.38762 -0.55155 30.99278 -1.39257 -14.21844 -21.40384 -7.4459 -3.38469 -3.92226 41.26367 12.48663 2.08819 -32.32008 -9.08247 1.46231 3.05969
0.00566 0.00108 -0.00898 -113.93263 -26.57512 0.80965 40.65824 2.78934 3.70991 -19.62365 5.57893 -1.78288 -4.14188 -16.6166 2.90061 34.36738 85.93756 4.50188 0.25095 -40.96689 13.30812 1.06166 35.68014 -102.8678 16.89617 -1.23963 31.49398 -1.47862 -14.29771 -21.55964 -7.45933 -3.42524 -3.94295 40.96941 12.94811 2.5145 -32.40295 -9.10896 1.62424 3.14144
0.00733 0.00098 -0.0098 -113.21264 -26.8468 0.73536 40.94676 2.72923 3.25763 -19.47567 5.50587 -1.78366 -5.41178 -15.91408 1.99599 33.49089 91.12785 5.86976 1.17439 -40.16002 13.39082 1.85194 36.26488 -107.10663 18.35732 -1.90914 31.99174 -1.56438 -14.37716 -21.71434 -7.47317 -3.46582 -3.96369 40.67665 13.4034 2.93957 -32.48429 -9.13781 1.78635 3.22341
0.00899 0.00089 -0.01064 -112.49132 -27.12202 0.66369 41.23872 2.66837 2.81193 -19.32707 5.43929 -1.78444 -6.67947 -15.20204 1.07481 32.59716 96.41337 7.26408 2.11435 -39.361 13.45898 2.68846 36.84876 -111.57363 19.91044 -2.61459 32.49597 -1.65064 -14.45622 -21.87115 -7.48612 -3.50629 -3.98432 40.38122 13.87071 3.36662 -32.56881 -9.16192 1.94792 3.30485
0.01067 0.00079 -0.01146 -111.77116 -27.39387 0.5895 41.5274 2.60824 2.36017 -19.17903 5.36669 -1.78522 -7.94929 -14.49906 0.16968 31.71954 101.60797 8.63311 3.03856 -38.55443 13.54013 3.48308 37.43375 -115.83789 21.38203 -3.28818 32.99406 -1.73644 -14.53554 -22.02589 -7.49998 -3.54687 -4.00505 40.08819 14.32678 3.79191 -32.65003 -9.19034 2.10997 3.38677
0.01236 0.0007 -0.01226 -111.05224 -27.66213 0.51259 41.81264 2.54881 1.90058 -19.03161 5.2868 -1.786 -9.22225 -13.80571 -0.71931 30.86043 106.70594 9.9754 3.94595 -37.7392 13.63906 4.22347 38.01922 -119.82372 22.74073 -3.91768 33.48558 -1.82172 -14.61563 -22.17866 -7.51463 -3.58754 -4.02589 39.79816 14.7699 4.21501 -32.72867 -9.22436 2.27279 3.46937
0.01395 0.0006 -0.01319 -110.32559 -27.95268 0.4524 42.11941 2.48476 1.48475 -18.88045 5.24906 -1.78677 -10.47881 -13.05257 -1.71162 29.89123 112.40367 11.48412 4.95744 -36.97544 13.6414 5.26678 38.59935 -125.31942 24.70913 -4.7854 34.01774 -1.91012 -14.69262 -22.34444 -7.52377 -3.62759 -4.04608 39.49105 15.2899 4.65061 -32.82653 -9.22713 2.43175 3.54834
0.01576 0.00052 -0.01384 -109.6158 -28.19514 0.35629 42.3796 2.43088 0.97757 -18.73729 5.12231 -1.78756 -11.76861 -12.42845 -2.47919 29.15666 116.80762 12.63357 5.74456 -36.10232 13.84375 5.677 39.19225 -127.68931 25.41702 -5.16052 34.46227 -1.99185 -14.77532 -22.48168 -7.54512 -3.66898 -4.06768 39.21994 15.6462 5.05987 -32.88107 -9.29517 2.59843 3.63475
0.01808 0.00051 -0.01375 -108.9483 -28.31355 0.16585 42.52076 2.40163 0.21002 -18.6155 4.74979 -1.7884 -13.16174 -12.13786 -2.6805 29.05244 117.86884 12.85672 5.95029 -34.93214 14.63232 4.28117 39.8093 -120.8953 22.41467 -4.08643 34.68024 -2.05603 -14.88102 -22.54913 -7.59544 -3.71386 -4.09277 39.04896 15.56141 5.39613 -32.83901 -9.54922 2.78996 3.74376
0.02063 0.00053 -0.01337 -108.29903 -28.38251 -0.06141 42.61382 2.38319 -0.64651 -18.50183 4.28853 -1.78926 -14.58535 -11.98045 -2.64735 29.18615 117.59823 12.70972 5.92532 -33.65195 15.61505 2.26136 40.4416 -111.06537 18.19063 -2.53473 34.808 -2.11359 -14.9913 -22.58646 -7.65877 -3.76006 -4.11932 38.91405 15.31097 5.70602 -32.74984 -9.86722 2.98847 3.85978
0.02312 0.00053 -0.01311 -107.64329 -28.46855 -0.27467 42.72283 2.36197 -1.45723 -18.38486 3.86838 -1.79012 -15.98796 -11.77571 -2.68782 29.22004 117.79426 12.6911 5.98227 -32.41965 16.48423 0.57324 41.07354 -103.01496 14.69289 -1.2665 34.9675 -2.17341 -15.09448 -22.63191 -7.71923 -3.80586 -4.14549 38.76156 15.1307 6.02853 -32.66706 -10.15187 3.18147 3.97124
0.02543 0.00054 -0.01293 -106.97759 -28.57602 -0.47668 42.85555 2.33187 -2.29481 -18.26637 3.44321 -1.79094 -17.42356 -11.51625 -2.86451 29.22009 118.54915 12.83311 6.13151 -31.1945 17.45968 -1.3152 41.67614 -93.29425 10.48063 0.2789 35.16441 -2.23549 -15.21809 -22.70039 -7.76723 -3.85107 -4.1706 38.61349 14.9707 6.34858 -32.64551 -10.45606 3.38466 4.08877
0.02816 0.00054 -0.0125 -106.33989 -28.62869 -0.71056 42.92889 2.32269 -3.09253 -18.15286 3.00939 -1.79185 -18.79421 -11.40146 -2.70484 29.34606 117.854 12.56135 6.03888 -29.93031 18.26104 -2.93943 42.34552 -86.30308 7.45416 1.36546 35.2639 -2.29238 -15.3012 -22.71428 -7.84379 -3.89753 -4.1981 38.46561 14.73045 6.66718 -32.48785 -10.73304 3.5679 4.19503
0.03196 0.00053 -0.0115 -105.75019 -28.52865 -1.02568 42.8379 2.36984 -3.80079 -18.05207 2.55731 -1.79303 -20.00645 -11.66123 -1.64818 29.76985 113.2351 11.16704 5.29324 -28.57047 18.52199 -3.63354 43.17722 -87.86284 8.11769 1.02052 35.10004 -2.32736 -15.26244 -22.58006 -8.00028 -3.94949 -4.23334 38.30168 14.29847 6.99003 -31.94407 -10.9334 3.69758 4.27094
0.03618 0.0005 -0.01026 -105.19298 -28.37741 -1.37113 42.69084 2.43744 -4.45791 -17.95596 2.10263 -1.79428 -21.14614 -12.06099 -0.26541 30.31109 107.25263 9.3834 4.32054 -27.17891 18.60273 -4.04784 44.07851 -92.22587 9.9958 0.20584 34.84403 -2.35913 -15.18403 -22.39264 -8.18432 -4.00221 -4.27066 38.13794 13.79312 7.31132 -31.26914 -11.10167 3.80635 4.33483
0.04022 0.00048 -0.00912 -104.63673 -28.25881 -1.70124 42.57774 2.49494 -5.11065 -17.85694 1.65973 -1.79548 -22.30142 -12.39096 0.95052 30.79233 102.05154 7.82313 3.47846 -25.81038 18.77456 -4.62282 44.96058 -95.12745 11.24124 -0.36243 34.64144 -2.39833 -15.1301 -22.23287 -8.35293 -4.05303 -4.30604 37.97941 13.32892 7.63304 -30.66846 -11.27506 3.92252 4.40258
0.04422 0.00047 -0.008 -104.01336 -28.10007 -2.03932 42.42821 2.5563 -5.88318 -17.76101 1.16898 -1.79679 -23.53445 -12.74968 2.25105 31.30753 96.10705 6.04973 2.51029 -24.3977 18.91651 -5.08262 45.79288 -98.70998 12.78302 -1.05216 34.3883 -2.41182 -15.05065 -22.05807 -8.53412 -4.1105 -4.34567 37.80051 12.82758 7.95783 -30.00386 -11.48989 4.04771 4.47724
0.0484 0.00043 -0.00679 -103.53899 -28.01196 -2.36737 42.34054 2.61421 -6.39284 -17.66027 0.77844 -1.79788 -24.58378 -13.08247 3.4526 31.77971 91.42231 4.63782 1.75663 -23.07584 19.07267 -5.70205 46.74257 -101.58513 14.01401 -1.6078 34.21807 -2.47852 -15.01288 -21.90151 -8.69568 -4.15426 -4.37693 37.66268 12.38629 8.27269 -29.44241 -11.6109 4.1492 4.53469
0.05292 0.00028 -0.00542 -103.45382 -28.14404 -2.66126 42.44884 2.65861 -6.18865 -17.53957 0.66607 -1.79835 -25.17663 -13.28829 4.27603 32.07734 90.38989 4.27268 1.62552 -21.97056 19.33419 -6.87635 48.01904 -101.78812 14.07783 -1.67123 34.31393 -2.69027 -15.11679 -21.81554 -8.79429 -4.16015 -4.38449 37.64602 12.14706 8.59089 -29.19364 -11.47196 4.18903 4.54632
0.05761 9e-05 -0.00397 -103.52021 -28.34671 -2.94357 42.61922 2.69858 -5.72114 -17.41482 0.65511 -1.79861 -25.5795 -13.46673 4.99238 32.33091 90.69842 4.29241 1.72223 -20.96613 19.61107 -8.20925 49.40567 -101.20412 13.79539 -1.58724 34.49408 -2.95624 -15.26067 -21.74861 -8.87248 -4.15217 -4.38357 37.66892 11.96821 8.89386 -29.05431 -11.24097 4.20592 4.5412
0.06225 -8e-05 -0.00256 -103.52633 -28.50925 -3.23043 42.75423 2.73984 -5.37431 -17.29556 0.59745 -1.79898 -26.04916 -13.6705 5.7726 32.62191 90.51796 4.17219 1.73472 -19.94363 19.86557 -9.43647 50.7312 -101.01714 13.68528 -1.57777 34.62657 -3.19913 -15.37543 -21.66829 -8.96124 -4.15042 -4.38658 37.66859 11.75056 9.1837 -28.86778 -11.05759 4.2342 4.54451
0.06678 -0.00025 -0.00116 -103.49666 -28.70462 -3.52163 42.91841 2.78488 -5.02224 -17.16121 0.54158 -1.79931 -26.60412 -13.82367 6.49895 32.84602 89.82375 3.9027 1.665 -18.80287 20.17919 -10.7963 52.11325 -100.75902 13.55326 -1.55257 34.79548 -3.43517 -15.53585 -21.60588 -9.04555 -4.14902 -4.38933 37.69105 11.57822 9.55707 -28.66556 -10.84895 4.2578 4.54402
0.07157 -0.00043 0.0003 -103.57783 -28.84822 -3.80032 43.03611 2.82074 -4.61822 -17.05708 0.50691 -1.79966 -26.93063 -14.07536 7.3093 33.19448 90.48202 4.02541 1.81433 -17.93264 20.3753 -11.92106 53.39347 -100.42706 13.36936 -1.51914 34.9095 -3.69859 -15.6102 -21.51166 -9.13389 -4.1436 -4.39059 37.67469 11.32681 9.75416 -28.52417 -10.67123 4.2858 4.54754
0.07702 -0.00063 0.00194 -103.9217 -28.8373 -4.05012 43.01957 2.83229 -4.14371 -17.0391 0.49934 -1.80002 -26.72807 -14.59159 8.36271 33.91906 95.02776 5.27181 2.59514 -17.78706 20.24683 -12.35857 54.4425 -100.06117 13.11632 -1.49636 34.85208 -4.02251 -15.44664 -21.32301 -9.23798 -4.13023 -4.38963 37.54561 10.84322 9.45773 -28.52104 -10.60338 4.33302 4.56704
0.08271 -0.00084 0.00363 -104.37273 -28.76993 -4.28718 42.95178 2.83477 -3.62474 -17.05144 0.51087 -1.80042 -26.29134 -15.20933 9.50518 34.76382 100.81164 6.87761 3.57532 -17.91008 19.99993 -12.55515 55.36864 -99.63532 12.81666 -1.46836 34.73548 -4.37235 -15.19433 -21.10247 -9.3465 -4.11325 -4.38743 37.37393 10.27853 8.98696 -28.5765 -10.56955 4.38528 4.59105
0.08831 -0.00105 0.0053 -104.77888 -28.72637 -4.52791 42.90278 2.84121 -3.12071 -17.04856 0.51798 -1.80085 -25.927 -15.78985 10.61556 35.54077 105.71261 8.23093 4.41016 -17.90872 19.80557 -12.86309 56.30262 -99.24208 12.54233 -1.44244 34.64768 -4.7117 -14.97551 -20.89788 -9.45341 -4.09818 -4.38599 37.22079 9.75024 8.60211 -28.60785 -10.5191 4.43444 4.61256
0.09386 -0.00124 0.007 -105.17491 -28.69764 -4.77665 42.87856 2.84777 -2.62942 -17.05111 0.51057 -1.80102 -25.70316 -16.33403 11.68843 36.37922 111.98644 9.969 5.47982 -17.92036 19.61645 -13.16895 57.45092 -98.81392 12.24893 -1.41376 34.56028 -5.04797 -14.78348 -20.68716 -9.55895 -4.08185 -4.38371 37.07819 9.2244 8.18603 -28.63262 -10.47059 4.48632 4.63547
0.09955 -0.00149 0.00863 -105.6146 -28.61793 -5.00651 42.78516 2.85249 -2.10481 -17.05027 0.53673 -1.80177 -25.12919 -16.97562 12.86016 37.10957 115.70888 10.99208 6.10987 -17.96775 19.38884 -13.41931 58.11251 -98.43736 11.97634 -1.39037 34.44992 -5.39551 -14.51841 -20.48218 -9.66735 -4.06701 -4.38265 36.89587 8.67536 7.79687 -28.68317 -10.42696 4.53386 4.65665
0.1056 -0.00191 0.01006 -106.15361 -28.46207 -5.18142 42.55405 2.84971 -1.49837 -17.02664 0.64991 -1.80384 -23.6849 -17.88417 14.29585 37.59049 111.80805 9.9002 5.43281 -18.04355 19.07811 -13.57944 57.54143 -98.35838 11.87861 -1.39499 34.35243 -5.77213 -14.03559 -20.2949 -9.79382 -4.06106 -4.38816 36.67682 8.06567 7.49868 -28.79365 -10.39192 4.56964 4.67286
0.11177 -0.00241 0.01142 -106.72978 -28.24829 -5.33891 42.24848 2.84606 -0.86219 -16.99949 0.79609 -1.80651 -21.89094 -18.88269 15.82426 37.94448 105.34144 8.08481 4.31376 -18.14562 18.73397 -13.69013 56.46893 -98.30884 11.78649 -1.40543 34.22354 -6.15778 -13.48888 -20.11603 -9.92103 -4.05609 -4.39447 36.40863 7.43842 7.23875 -28.92665 -10.36033 4.60068 4.68705
